<svg xmlns="http://www.w3.org/2000/svg" viewBox="0 0 540 190.68"><defs><style>.cls-1{fill:#ffd830;}</style></defs><g id="Layer_2" data-name="Layer 2"><g id="Layer_1-2" data-name="Layer 1"><path class="cls-1" d="M533,168.19a7,7,0,0,1-7-7V26.73A12.75,12.75,0,0,0,513.26,14H26.73A12.74,12.74,0,0,0,14,26.73V161.19a7,7,0,0,1-14,0V26.73A26.76,26.76,0,0,1,26.73,0H513.26A26.76,26.76,0,0,1,540,26.73V161.19A7,7,0,0,1,533,168.19Z"/><path class="cls-1" d="M185.72,43.59a5.73,5.73,0,0,0-4-1.67H170.23a5.72,5.72,0,0,0-5.73,5.72v97.27H141.63V47.65a5.7,5.7,0,0,0-5.73-5.71H124.46a5.7,5.7,0,0,0-5.72,5.71v97.26a22.86,22.86,0,0,0,17.16,22.17c3.11.79,5.73,3.24,5.73,6.43a5.72,5.72,0,1,0,11.44,0,5.7,5.7,0,0,1,5.68-5.71h.07a5.7,5.7,0,0,1,5.68,5.71V185A5.73,5.73,0,0,0,176,185V170.43c0-3.57,2.07-6.71,4.6-9.21l.14-.12a22.85,22.85,0,0,0,6.7-16.19h0V47.64A5.71,5.71,0,0,0,185.72,43.59Z"/><path class="cls-1" d="M198.24,43.59a5.74,5.74,0,0,1,4-1.67H259.5a5.7,5.7,0,0,1,5.72,5.72V59.09a5.7,5.7,0,0,1-5.72,5.72H242.34v97.27a5.73,5.73,0,0,1-5.73,5.72,5.73,5.73,0,0,0-5.72,5.73,5.72,5.72,0,0,1-11.44,0V64.81h-5.72A5.73,5.73,0,0,0,208,70.53a5.72,5.72,0,1,1-11.44,0V47.64A5.72,5.72,0,0,1,198.24,43.59Z"/><path class="cls-1" d="M343.06,47.64V70.53a5.72,5.72,0,1,1-11.44,0,5.73,5.73,0,0,0-5.74-5.72h-5.71V173.53a5.72,5.72,0,0,1-11.44,0A5.73,5.73,0,0,0,303,167.8a5.73,5.73,0,0,1-5.73-5.72V64.81H280.12a5.72,5.72,0,0,1-5.73-5.72V47.64a5.72,5.72,0,0,1,5.73-5.72h57.22a5.72,5.72,0,0,1,5.72,5.72Z"/><path class="cls-1" d="M420.87,47.47a5.69,5.69,0,0,0-1.55-3.74,1.71,1.71,0,0,1-.11-.14,5.64,5.64,0,0,0-3.4-1.61c-.21,0-.43-.06-.65-.06H358a5.72,5.72,0,0,0-5.73,5.72V162.07a5.68,5.68,0,0,0,1.68,4.05A5.74,5.74,0,0,0,358,167.8a5.7,5.7,0,0,1,5.71,5.71,5.42,5.42,0,0,0,2.52,4.85,5.8,5.8,0,0,0,8.93-4.82,5.47,5.47,0,0,1,2.75-5,5.78,5.78,0,0,1,8.69,5v11.12a5.94,5.94,0,0,0,5.41,6,5.71,5.71,0,0,0,6-5.71V173.52a5.72,5.72,0,0,1,5.72-5.72h11.45a5.71,5.71,0,0,0,5.71-5.71V150.63a5.72,5.72,0,0,0-5.72-5.72H375.11V110.58H404.2a5.23,5.23,0,0,0,5.24-5.25V93.41a5.72,5.72,0,0,0-5.72-5.72H375.11V64.81h28.6a5.73,5.73,0,0,1,5.73,5.72,5.72,5.72,0,1,0,11.44,0V47.64h0C420.88,47.58,420.87,47.53,420.87,47.47Z"/><path class="cls-1" d="M488.68,129.51a22.54,22.54,0,0,0,3.33-2.74,22.86,22.86,0,0,0,6.7-16.18V64.82a22.86,22.86,0,0,0-22.89-22.89H435.77a5.7,5.7,0,0,0-5.72,5.72V162.08a5.71,5.71,0,0,0,5.72,5.72,5.73,5.73,0,0,1,5.72,5.73,5.73,5.73,0,0,0,11.45,0V133.48h8.36l10.07,23.81a56.58,56.58,0,0,1,4.44,22V185a5.73,5.73,0,0,0,11.45,0V173.53A5.73,5.73,0,0,1,493,167.8a3.77,3.77,0,0,0,3.47-5.26l-10.62-25.18C484.6,134.47,486.09,131.26,488.68,129.51Zm-35.74-18.92V64.82h22.88v45.77Z"/><path class="cls-1" d="M102.87,95.43a22.9,22.9,0,0,0,6.7-16.2V64.68A22.88,22.88,0,0,0,86.68,41.8H46.63a5.72,5.72,0,0,0-5.72,5.72V162.2a5.72,5.72,0,0,0,5.72,5.72,5.73,5.73,0,0,1,5.72,5.72V185a5.73,5.73,0,0,0,11.45,0V173.64a5.72,5.72,0,0,1,11.44,0,5.72,5.72,0,0,0,11.44,0c0-3.2,2.62-5.64,5.72-6.44A22.88,22.88,0,0,0,109.57,145V119.39a22.81,22.81,0,0,0-6.74-16.21l-.6-.58a4.49,4.49,0,0,1,0-6.6ZM86.68,145H63.79V110.71H86.68Zm0-57.22H63.79V64.68H86.68Z"/></g></g></svg>